<svg width="105" height="33" viewBox="0 0 105 33" fill="none" xmlns="http://www.w3.org/2000/svg">
<g clip-path="url(#clip0_2379_60)">
<mask id="mask0_2379_60" style="mask-type:luminance" maskUnits="userSpaceOnUse" x="0" y="0" width="105" height="33">
<path d="M104.828 0.5H0V32.5H104.828V0.5Z" fill="white"/>
</mask>
<g mask="url(#mask0_2379_60)">
<path d="M104.295 16.7709C104.033 16.5986 103.713 16.5355 103.404 16.5954C103.095 16.6554 102.822 16.8334 102.645 17.091C102.58 17.1862 101.155 19.2362 98.6628 19.2362C97.6908 19.2362 96.9468 18.9486 96.4598 18.3388C96.4288 18.3084 96.3968 18.2436 96.3638 18.2112C96.3718 18.2112 96.3808 18.2078 96.3868 18.2017C96.3928 18.1956 96.3968 18.1874 96.3968 18.1788C102.289 14.8485 102.224 11.9984 101.961 10.941C101.607 9.65864 100.473 8.82604 99.0168 8.82604C95.6488 8.82604 93.4158 12.5413 93.4158 16.0012C93.4148 16.4304 93.4468 16.859 93.5118 17.2834C92.3138 18.1484 90.4688 19.2362 88.8498 19.2362C87.9118 19.2362 87.1998 18.9486 86.7468 18.4036C86.5868 18.21 86.4558 17.9944 86.3578 17.7635C90.8618 16.4813 92.5738 13.6311 92.2508 11.3562C92.0558 9.88344 90.9218 8.82604 89.5318 8.82604C86.3908 8.82604 84.1238 12.0936 83.7678 15.2962C83.1898 15.2528 82.6328 15.0654 82.1488 14.7513C82.2228 14.2527 82.2668 13.7501 82.2798 13.2462C82.2798 12.1908 82.0848 11.2934 81.6958 10.5885C81.4698 10.1527 81.1268 9.78744 80.7038 9.53284C80.2808 9.27834 79.7958 9.14444 79.3008 9.14614C79.0258 9.14824 78.7568 9.22484 78.5228 9.36774C78.2888 9.51064 78.0988 9.71424 77.9738 9.95644C77.3898 11.0119 77.7688 13.0619 78.8458 14.6966C79.0448 15.0161 79.2728 15.3166 79.5278 15.594C78.9438 17.4516 77.7138 19.2119 76.1598 19.2119C75.8468 19.2221 75.5348 19.1664 75.2448 19.0484C74.9548 18.9303 74.6938 18.7527 74.4788 18.5272C73.8648 17.8547 73.4428 16.6696 73.3138 15.1645C77.7158 9.71944 79.8838 4.36954 78.6558 1.83944C78.4708 1.43333 78.1698 1.08983 77.7898 0.851432C77.4098 0.613032 76.9678 0.490232 76.5178 0.498432C73.4758 0.498432 71.6598 4.40594 70.9488 12.4501C70.9158 12.9302 70.8858 13.5399 70.8858 14.1801C69.2658 16.3577 66.586 19.2078 64.1824 19.2078C63.5026 19.2078 62.9846 18.985 62.6611 18.5049C62.6284 18.4725 62.5977 18.4077 62.5649 18.3753C62.5977 18.3753 62.6284 18.3429 62.6611 18.3125C68.5868 14.5325 68.4898 11.6824 68.1888 10.6574C67.8738 9.53104 66.8379 8.80374 65.5173 8.80374C62.0858 8.80374 59.7538 12.7135 59.7538 16.3638C59.7593 16.6847 59.7812 17.0052 59.8193 17.3239C58.7178 18.0937 57.8436 18.7987 56.9693 19.4712C57.1003 18.4786 57.2928 17.1963 57.5201 15.3063C57.5856 14.9235 57.6183 14.6014 57.6491 14.4414C57.8436 13.0639 55.5464 12.7762 55.2863 14.3138C55.0284 15.9161 54.3486 19.2139 52.4384 19.2139C51.3041 19.2139 50.6899 17.9661 50.8189 16.1389C50.9806 13.2563 52.5674 10.9187 54.5042 10.9187C55.184 10.9187 55.5075 11.6236 55.5075 11.6236C56.1217 12.7134 58.0319 11.7837 57.6122 10.631C57.4177 10.1184 56.7932 8.80784 54.5677 8.80784C50.0347 8.80784 48.6118 13.3576 48.4255 16.3678C48.3873 16.8484 48.3982 17.3317 48.4582 17.8101C47.8092 18.5779 47.066 19.2281 46.3207 19.2281C45.6082 19.2281 45.1557 18.4178 45.4137 16.5947C45.6737 14.8323 45.8682 13.3921 45.9645 12.5575C46.5152 8.74704 41.6915 8.84224 41.6915 8.84224C41.6915 8.84224 41.6178 6.57554 39.7731 6.57554C38.8333 6.57554 37.9591 7.31284 37.9591 8.69034C37.9653 9.07464 38.0658 9.45174 38.252 9.78904C38.4382 10.1264 38.7044 10.4139 39.0278 10.627C38.8026 12.6122 37.8628 19.2099 35.752 19.2099C34.8142 19.2099 34.7487 18.2173 34.845 17.5123C34.976 16.5522 35.1377 14.8789 35.2012 14.4738C35.3957 13.0963 33.0985 12.8087 32.8385 14.3462C32.5805 15.9485 31.9008 19.2463 29.9905 19.2463C28.8563 19.2463 28.242 17.8283 28.3383 16.1085C28.5 13.1935 30.0868 10.9511 32.0236 10.9511C32.7034 10.9511 33.0269 11.656 33.0269 11.656C33.5449 12.7438 35.5206 11.9761 35.1316 10.6634C34.9699 10.086 34.3126 8.84024 32.0871 8.84024C27.5562 8.84024 26.1312 13.39 25.9449 16.4002C25.9121 16.848 25.9121 17.2975 25.9449 17.7453C25.2979 18.6103 24.5117 19.2504 23.7766 19.2504C23.0969 19.2504 22.5789 18.8979 22.7079 17.3928C22.7714 16.6879 23.5821 11.8525 23.5494 10.9876C23.4531 9.51274 22.7714 8.87264 21.1211 8.87264C19.7813 8.88214 18.4957 9.39814 17.5279 10.3149C17.5279 10.3149 18.3469 4.23784 18.4984 3.04274C18.6602 1.82724 16.2647 1.79284 16.1357 3.04274C16.0743 3.57344 15.4273 8.37834 14.8438 12.8552C13.4843 15.8087 10.7981 20.2936 6.81584 20.2936C-0.726861 20.2936 2.73734 4.02114 9.82754 4.02114C11.4778 4.02114 10.7326 6.65454 9.62284 8.21834C8.84474 9.37094 10.8206 10.6493 11.9201 8.82604C14.9748 3.73954 12.4176 1.84344 9.98934 1.84344C-0.50166 1.84344 -4.38556 22.5361 6.52504 22.5361C10.1183 22.5361 12.5466 20.5509 14.1006 18.3712C13.9388 19.5867 13.8405 20.4212 13.8078 20.5813C13.6153 21.8635 16.0436 21.7663 16.1725 20.6785C16.2688 20.006 16.625 17.1538 16.9158 14.9437C17.0796 13.6959 18.6315 11.3886 20.38 11.3886C20.4744 11.3952 20.5665 11.4205 20.6507 11.4631C20.735 11.5058 20.8097 11.5648 20.8703 11.6367C20.9309 11.7086 20.9762 11.7919 21.0035 11.8815C21.0308 11.9712 21.0394 12.0654 21.029 12.1584C20.9635 12.5635 20.21 17.9884 20.251 18.7885C20.38 21.0634 22.0322 21.5759 23.5862 21.5759C24.8147 21.5759 25.82 20.9986 26.6287 20.1012C27.1794 20.9986 28.0209 21.5759 29.1859 21.5759C31.8086 21.5759 32.7156 19.7163 32.7156 19.7163C32.7156 19.7163 33.0391 21.5759 35.3056 21.5759C39.9021 21.5759 40.9708 13.6635 41.1981 11.0038C41.4561 11.0038 43.0756 11.101 43.3663 11.9984C43.6263 12.8634 42.8155 15.6163 42.7521 18.4685C42.7193 19.9736 43.2701 21.5759 45.6655 21.5759C46.9494 21.5492 48.1753 21.0425 49.097 20.1579C49.3521 20.5952 49.7206 20.9572 50.1644 21.2065C50.6082 21.4557 51.1112 21.5833 51.6215 21.5759C52.5974 21.6072 53.5556 21.3133 54.3425 20.7413C54.3097 20.9986 54.277 21.2234 54.2442 21.4787V21.5111C54.2442 21.4787 48.19 25.8035 48.19 29.8711C48.19 31.4735 48.9353 32.5045 50.8516 32.5045C54.6394 32.5045 55.8371 27.4747 56.3797 23.3423C56.4151 23.1626 56.4363 22.9804 56.4431 22.7974C57.0266 22.3497 57.5774 21.9324 58.1282 21.5171C58.9041 20.9094 59.6821 20.3321 60.5543 19.694C60.5871 19.7568 60.6526 19.8216 60.6854 19.8844C61.4941 20.9743 62.6918 21.5516 64.1496 21.5516C66.9013 21.5516 69.4588 19.4692 71.2708 17.4192C71.5628 18.4117 71.9828 19.3719 72.7038 20.1417C73.1418 20.6062 73.6738 20.9746 74.2648 21.2231C74.8558 21.4715 75.4928 21.5945 76.1348 21.584C78.7578 21.584 80.5718 19.5016 81.5428 17.0991C82.2898 17.4255 83.0898 17.6202 83.9048 17.6744C84.0688 18.4819 84.4238 19.2393 84.9408 19.8844C85.5878 20.6542 86.7838 21.584 88.8908 21.584C90.9978 21.584 93.0668 20.4618 94.4598 19.534L94.6538 19.8216C95.3008 20.6319 96.5638 21.584 98.6998 21.584C102.488 21.584 104.592 18.509 104.691 18.3793C104.832 18.1092 104.87 17.7976 104.797 17.5019C104.725 17.2063 104.547 16.9466 104.295 16.7709ZM51.1362 30.2236C50.78 30.2236 50.522 29.9988 50.522 29.5511C50.522 27.5011 53.7262 24.7137 53.759 24.7137C53.37 27.4687 52.2377 30.2236 51.1362 30.2236ZM65.4456 11.0038C65.7363 11.0038 65.8019 11.2286 65.8674 11.3562C65.9964 11.8059 65.5439 13.5035 62.0797 15.8735C62.2742 13.6311 63.6746 11.0038 65.4456 11.0038ZM76.4528 2.90094C77.4578 2.90094 76.6468 6.29594 73.4428 11.0362C74.1858 4.72604 75.2218 2.90094 76.4528 2.90094ZM89.2738 11.0038C89.7918 11.0038 89.8238 11.5163 89.8568 11.7087C89.9858 12.6709 89.0788 14.4009 86.0998 15.3935C86.4258 13.311 87.8158 11.0038 89.2668 11.0038H89.2738ZM98.9868 11.0038C99.3428 11.0038 99.5368 11.261 99.6338 11.5811C99.8278 12.2536 98.9208 13.9512 95.7428 15.8735C95.8188 13.6311 97.1728 11.0038 98.9868 11.0038Z" fill="#202938"/>
</g>
</g>
<defs>
<clipPath id="clip0_2379_60">
<rect width="105" height="32" fill="white" transform="translate(0 0.5)"/>
</clipPath>
</defs>
</svg>
