<svg width="133" height="22" viewBox="0 0 133 22" fill="none" xmlns="http://www.w3.org/2000/svg">
<g clip-path="url(#clip0_2379_78)">
<mask id="mask0_2379_78" style="mask-type:luminance" maskUnits="userSpaceOnUse" x="0" y="0" width="133" height="22">
<path d="M0 0.5H133V21.5H0V0.5Z" fill="white"/>
</mask>
<g mask="url(#mask0_2379_78)">
<path d="M124.885 11.6934C127.448 13.027 128.515 14.2537 128.515 16.0405C128.515 18.2007 126.78 20.3606 123.07 20.3606C121.094 20.3606 119.946 20.0406 118.985 19.6405L117.731 15.747L118.425 15.5338L119.039 16.1205C120.934 17.9072 122.562 19.0808 123.817 19.0808C124.752 19.0808 125.259 18.4938 125.259 17.8806C125.259 17.2672 125.152 16.6271 123.55 15.8004L121.174 14.5737C119.092 13.5068 118.104 12.2269 118.104 10.7336C118.104 8.17343 120.347 6.68013 123.23 6.68013C125.178 6.68013 126.273 6.94673 126.273 6.94673L127.368 10.3336L126.673 10.5468L126.246 10.1736C124.031 8.22683 123.257 7.82683 122.322 7.82683C121.654 7.82683 121.094 8.25343 121.094 8.84003C121.094 9.26693 121.174 9.77353 122.509 10.4667L124.885 11.6934ZM113.673 11.6669C116.262 12.9736 117.303 14.2537 117.303 16.0405C117.303 18.2007 115.568 20.3606 111.858 20.3606C109.882 20.3606 108.734 20.0406 107.773 19.6405L106.519 15.747L107.213 15.5338L107.827 16.1205C109.722 17.9072 111.35 19.0808 112.605 19.0808C113.54 19.0808 114.047 18.4938 114.047 17.8806C114.047 17.2672 113.94 16.6005 112.338 15.8004L109.962 14.6003C107.88 13.5336 106.892 12.2269 106.892 10.7336C106.892 8.17343 109.135 6.68013 112.018 6.68013C113.966 6.68013 115.061 6.94673 115.061 6.94673L116.155 10.3336L115.461 10.5468L115.035 10.1736C112.818 8.22683 112.045 7.82683 111.11 7.82683C110.443 7.82683 109.882 8.25343 109.882 8.84003C109.882 9.26693 109.962 9.80013 111.297 10.4667L113.673 11.6669ZM95.7066 10.7868C95.7066 11.9603 96.1076 13.1867 96.8016 14.2268L97.9766 13.1067C98.7776 12.3604 99.4436 11.5334 99.4436 10.3867C99.4436 9.50693 98.8566 8.46683 97.6826 8.46683C96.5876 8.46683 95.7066 9.29353 95.7066 10.7868ZM105.931 13.8002L106.225 14.7069C105.771 17.8272 103.235 20.3606 99.9246 20.3606C95.6796 20.3606 92.9576 17.1871 92.9576 13.1867C92.9576 9.53353 95.5196 6.60013 99.1236 6.60013C101.74 6.60013 103.689 8.19993 104.49 10.3602L97.4956 15.0804C98.4836 16.1205 99.8716 16.8403 101.474 16.8403C103.663 16.8403 105.318 15.3204 105.931 13.8002ZM91.9966 19.3205V20.1206H85.1626V19.3205C86.0436 19.0273 86.3906 18.4673 86.3906 17.7203V5.80003C86.3906 4.62643 85.8026 4.22643 84.8416 4.14643V3.42633L90.5306 1.58643H90.7706V17.7203C90.7706 18.4673 91.1176 19.0273 91.9986 19.3205H91.9966ZM78.5954 15.747V8.76003C78.4086 8.68003 78.0885 8.57343 77.6079 8.57343C76.0327 8.57343 74.084 9.77353 74.084 13.1336C74.084 16.2539 75.285 17.9606 76.9139 17.9606C77.5274 17.9606 78.5954 17.6672 78.5954 15.747ZM84.2016 19.3205V20.1206H78.8092L78.836 20.094L78.7023 20.1206L78.7289 18.3873H78.5954C78.1683 19.0273 77.0473 20.2274 75.0452 20.2274C72.0022 20.2274 70.1069 17.6672 70.1069 14.3603C70.1069 10.0135 73.0428 6.86673 77.8482 6.86673C78.2214 6.86673 78.5954 6.89323 78.5954 6.89323V5.80003C78.5954 4.62643 78.0082 4.22643 77.0473 4.14643V3.42633L82.7356 1.58643H82.9756V17.7203C82.9756 18.4673 83.3226 19.0273 84.2036 19.3205H84.2016ZM70.6141 10.6802L69.9198 10.9202C68.4783 10.2536 67.944 10.2001 66.743 10.2001C66.0227 10.2001 65.3286 10.5202 65.3286 10.5202V17.7203C65.3286 18.4673 65.7018 19.0273 66.6896 19.3205V20.1206H59.9892V19.3205C60.8704 19.0273 60.9504 18.4673 60.9504 17.7203V10.0401C60.9504 8.65343 60.5498 8.17343 59.1351 7.58673V6.78673H65.2749L65.1686 9.69353H65.2218L65.7287 9.02663C66.743 7.69333 68.0245 6.73323 69.2792 6.73323H69.3857L70.6141 10.6802ZM51.9007 13.7737L51.3401 12.0935C49.8186 13.2404 49.0711 14.7069 49.0711 15.7739C49.0711 17.1606 49.7652 17.8006 50.7263 17.8006C52.3813 17.8006 52.7282 16.2539 51.9007 13.7737ZM59.4552 17.9606L59.7223 18.8139C59.5089 19.1873 58.5745 20.334 56.9196 20.334C54.7037 20.334 53.796 19.0273 53.1554 17.2672C52.5416 18.9205 51.1267 20.3606 48.5639 20.3606C46.2681 20.3606 45.0134 18.8405 45.0134 17.1871C45.0134 14.8938 46.9087 13.267 50.9666 11.1602C50.4592 10.2001 49.3114 9.74673 48.0836 9.74673C46.5887 9.72013 44.9334 10.3602 44.0791 11.5068L43.7856 10.6002C44.4263 8.86693 46.5618 6.57323 49.9789 6.57323C53.0488 6.57323 55.1309 8.44003 56.0918 11.4003L57.9336 17.0537C58.2008 17.9072 58.6277 18.1472 58.9748 18.1472C59.1617 18.1472 59.3486 18.0672 59.4552 17.9606ZM43.8922 14.3337L44.2128 15.4004C43.7856 17.7738 41.997 20.3606 38.4199 20.3606C34.3891 20.3606 31.2389 16.9737 31.2389 12.0935C31.2389 6.84013 35.1097 3.53323 39.888 3.53323C40.5823 3.53323 41.1961 3.58633 41.5432 3.63983L43.2782 9.13353L42.5576 9.37353L40.7155 7.69333C39.1405 6.28003 38.1796 5.74653 37.0853 5.74653C35.5903 5.74653 34.6025 6.86673 34.6025 9.02663C34.6025 13.0804 36.845 16.7339 40.1283 16.7339C42.1573 16.7339 43.2516 15.6138 43.8922 14.3337ZM25.4329 12.7067C24.3917 9.56013 23.0304 7.66673 21.402 8.19993C19.7737 8.73343 19.7737 11.0537 20.788 14.2003C21.8292 17.3472 23.1904 19.2405 24.8188 18.7073C26.4472 18.1738 26.4472 15.8539 25.4329 12.7067ZM30.2114 13.4536C30.2114 17.3472 27.2212 20.414 23.1104 20.414C18.9993 20.414 16.0094 17.3472 16.0094 13.4536C16.0094 9.56013 18.9993 6.49323 23.1104 6.49323C27.2212 6.49323 30.2114 9.56013 30.2114 13.4536ZM8.84218 10.2001H14.7148C14.8219 10.7868 14.9551 11.8535 14.9551 13.1604C14.9551 16.7339 12.1789 20.3606 8.04128 20.3606C3.90358 20.3606 0.459881 16.8416 0.486481 11.9603C0.513381 6.84013 4.38418 3.53323 9.50928 3.53323C10.0699 3.53323 10.7108 3.58633 11.1646 3.63983L12.8995 9.13353L12.1789 9.37353L10.3368 7.69333C8.73528 6.25323 7.64068 5.77313 6.54628 5.77313C5.05138 5.77313 3.85008 6.86673 3.85008 9.02663C3.85008 13.0804 6.75998 17.2672 9.96338 17.2672C11.4849 17.2672 12.2324 16.7071 12.7664 16.147L8.84218 11.0002V10.2001Z" fill="#202938"/>
</g>
</g>
<defs>
<clipPath id="clip0_2379_78">
<rect width="133" height="21" fill="white" transform="translate(0 0.5)"/>
</clipPath>
</defs>
</svg>
