<svg width="120" height="19" viewBox="0 0 120 19" fill="none" xmlns="http://www.w3.org/2000/svg">
<g clip-path="url(#clip0_2379_66)">
<mask id="mask0_2379_66" style="mask-type:luminance" maskUnits="userSpaceOnUse" x="0" y="0" width="120" height="19">
<path d="M120 0.5H0V18.061H120V0.5Z" fill="white"/>
</mask>
<g mask="url(#mask0_2379_66)">
<path d="M12.2912 6.75118C12.2912 6.75118 1.28761 -0.838615 0.645211 11.6101C0.645211 11.6101 -1.16209 6.42968 2.73351 3.17698C2.73351 3.17698 7.01011 -0.678116 13.3151 3.27748L14.018 0.988281L18.676 7.93558L11.4677 8.99998C11.4477 8.97998 12.0902 7.65458 12.2912 6.75118Z" fill="#202938"/>
<path d="M8.49529 11.9313C8.49529 11.9313 19.4986 19.5211 20.1411 7.07227C20.1411 7.07227 21.9484 12.2528 18.0528 15.5054C18.0528 15.5054 13.7762 19.3606 7.47139 15.405L6.76849 17.6937L2.15039 10.7469L9.35869 9.72297C9.35869 9.68247 8.77679 11.0279 8.49529 11.9313Z" fill="#202938"/>
<path d="M40.562 17.011H38.3732L32.4903 9.20037L30.8439 10.7062V17.011H28.9766V0.928177H30.8439V8.87937L38.1122 0.928177H40.301L33.8961 7.93547L40.562 17.011ZM48.5737 17.011L48.2522 15.4047H48.1517C47.5693 16.1076 47.0274 16.5896 46.4449 16.8506C45.903 17.1115 45.16 17.232 44.3566 17.232C43.2322 17.232 42.3888 16.971 41.7464 16.3686C41.1039 15.7862 40.7825 14.9832 40.7825 13.9189C40.7825 11.6301 42.5898 10.4453 46.2239 10.3448L48.1517 10.2848V9.58187C48.1517 8.67847 47.9308 8.03597 47.5693 7.61407C47.1878 7.19257 46.5454 6.97157 45.762 6.97157C44.7981 6.97157 43.7342 7.23257 42.5493 7.83497L42.0074 6.55017C42.5493 6.22867 43.1922 6.00817 43.8147 5.84717C44.4571 5.68677 45.16 5.58627 45.7825 5.58627C47.1278 5.58627 48.1317 5.90767 48.7742 6.48967C49.4166 7.07207 49.7381 8.03547 49.7381 9.38087V17.071H48.5532V17.011H48.5737ZM44.7186 15.7662C45.783 15.7662 46.6464 15.5052 47.2283 14.9028C47.8108 14.3003 48.1317 13.5174 48.1317 12.453V11.4291L46.4249 11.4891C45.0795 11.5491 44.0756 11.7501 43.4932 12.1315C42.9108 12.513 42.5898 13.0954 42.5898 13.8984C42.5898 14.5408 42.7503 14.9628 43.1722 15.2837C43.5542 15.6057 44.0761 15.7662 44.7186 15.7662ZM60.641 13.8989C60.641 14.9632 60.2596 15.7662 59.4561 16.3486C58.6532 16.931 57.5888 17.212 56.143 17.212C54.6371 17.212 53.4727 16.991 52.6093 16.5091V14.9028C53.1513 15.1637 53.7337 15.3847 54.3761 15.5452C55.0186 15.7057 55.601 15.7662 56.1835 15.7662C57.0869 15.7662 57.7898 15.6057 58.2717 15.3447C58.7537 15.0837 58.9747 14.6418 58.9747 14.0598C58.9747 13.6384 58.7537 13.2569 58.3922 12.9354C58.0108 12.614 57.2678 12.2325 56.1435 11.811C55.0791 11.4296 54.3361 11.0681 53.8947 10.7871C53.4527 10.5062 53.1517 10.1448 52.8708 9.76327C52.6498 9.38187 52.5493 8.96037 52.5493 8.41797C52.5493 7.51457 52.9308 6.77157 53.6737 6.22917C54.4166 5.68717 55.4405 5.42627 56.7659 5.42627C57.9908 5.42627 59.1752 5.68717 60.34 6.16917L59.7576 7.55457C58.6332 7.07257 57.6293 6.85157 56.6654 6.85157C55.8625 6.85157 55.2196 6.95207 54.8581 7.23307C54.4366 7.49407 54.2156 7.81547 54.2156 8.29747C54.2156 8.61897 54.2756 8.83937 54.4366 9.04037C54.5971 9.26137 54.8581 9.46187 55.1795 9.62287C55.501 9.84377 56.2035 10.1048 57.1474 10.4863C58.4927 10.9681 59.3961 11.4501 59.8781 11.992C60.44 12.574 60.641 13.1559 60.641 13.8989ZM71.1825 17.011V9.68237C71.1825 8.77897 70.9615 8.07597 70.54 7.59407C70.1186 7.17257 69.4756 6.89107 68.5722 6.89107C67.3874 6.89107 66.5444 7.21257 65.962 7.85497C65.42 8.49747 65.1591 9.56187 65.1591 11.0071V16.8906H63.4522V0.867676H65.1591V5.72677C65.1591 6.30917 65.0991 6.79107 65.0586 7.17257H65.1591C65.4805 6.63067 65.962 6.20867 66.6049 5.88767C67.2474 5.56627 67.9503 5.40577 68.7332 5.40577C70.1186 5.40577 71.1425 5.72717 71.8254 6.36967C72.5283 7.01207 72.8493 8.07647 72.8493 9.52187V16.8906H71.203V17.011H71.1825ZM77.969 17.011H76.102V0.968176H85.017V2.61457H77.969V8.49747H84.655V10.1438H78.029V16.9906H77.969V17.011ZM89.012 17.011H87.305V0.968176H89.012V17.011ZM102.385 11.3491C102.385 13.1564 101.903 14.6018 101 15.6862C100.096 16.7101 98.811 17.232 97.144 17.232C96.121 17.232 95.217 17.011 94.474 16.5291C93.671 16.0471 93.089 15.3442 92.667 14.5013C92.245 13.5979 92.024 12.5735 92.024 11.4091C92.024 9.60187 92.506 8.15647 93.41 7.13257C94.313 6.10867 95.599 5.58677 97.265 5.58677C98.871 5.58677 100.096 6.12867 101 7.13257C101.903 8.13647 102.385 9.52187 102.385 11.3491ZM93.771 11.3491C93.771 12.795 94.032 13.9193 94.635 14.6623C95.217 15.4052 96.081 15.7867 97.205 15.7867C98.329 15.7867 99.173 15.4052 99.775 14.6623C100.378 13.9193 100.639 12.795 100.639 11.3491C100.639 9.90327 100.378 8.83937 99.775 8.09647C99.173 7.35357 98.329 6.97207 97.205 6.97207C96.081 6.97207 95.237 7.35357 94.695 8.09647C94.052 8.77897 93.771 9.90327 93.771 11.3491ZM114.613 17.011L112.524 10.3853C112.424 9.96377 112.143 9.03987 111.782 7.61457H111.681C111.42 8.79937 111.139 9.74287 110.978 10.3853L108.85 17.011H106.882L103.83 5.72677H105.637C106.38 8.55797 106.922 10.7462 107.283 12.192C107.665 13.6979 107.866 14.6418 107.926 15.1837H108.026C108.086 14.8023 108.247 14.2803 108.408 13.6779C108.568 13.0354 108.729 12.5535 108.829 12.172L110.857 5.70677H112.724L114.752 12.172C115.134 13.3569 115.395 14.3608 115.555 15.1637H115.656C115.716 14.9028 115.756 14.5213 115.877 14.0393C115.977 13.4974 116.74 10.7262 118.005 5.70677H119.772L116.68 16.971H114.611V17.011H114.613Z" fill="#202938"/>
</g>
</g>
<defs>
<clipPath id="clip0_2379_66">
<rect width="120" height="18" fill="white" transform="translate(0 0.5)"/>
</clipPath>
</defs>
</svg>
