<svg width="139" height="28" viewBox="0 0 139 28" fill="none" xmlns="http://www.w3.org/2000/svg">
<g clip-path="url(#clip0_2379_74)">
<path d="M138.126 21.0071C138.126 20.723 137.887 20.6178 137.637 20.6178H137.174V21.9414H137.409V21.3964H137.579L137.887 21.9492H138.173L137.818 21.3653C137.901 21.3504 137.975 21.3061 138.028 21.2403C138.081 21.1746 138.109 21.0919 138.107 21.0071H138.126ZM137.413 21.1979V20.8086H137.629C137.753 20.8086 137.891 20.8475 137.891 20.9915C137.891 21.1356 137.741 21.1862 137.606 21.1862H137.413V21.1979ZM137.633 20.1079C137.404 20.1079 137.181 20.1764 136.99 20.3047C136.8 20.433 136.652 20.6154 136.565 20.8288C136.477 21.0422 136.454 21.277 136.499 21.5035C136.543 21.7301 136.654 21.9382 136.815 22.1015C136.977 22.2648 137.183 22.376 137.407 22.4211C137.632 22.4662 137.864 22.443 138.076 22.3546C138.287 22.2663 138.467 22.1166 138.595 21.9245C138.722 21.7325 138.789 21.5067 138.789 21.2757C138.789 20.966 138.668 20.669 138.451 20.4499C138.234 20.2309 137.94 20.1079 137.633 20.1079ZM137.633 22.2917C137.438 22.2917 137.247 22.2333 137.085 22.1238C136.922 22.0143 136.796 21.8586 136.721 21.6765C136.647 21.4944 136.627 21.2941 136.665 21.1008C136.703 20.9075 136.797 20.7299 136.935 20.5905C137.073 20.4512 137.249 20.3562 137.44 20.3178C137.632 20.2793 137.83 20.2991 138.011 20.3745C138.191 20.4499 138.345 20.5777 138.454 20.7415C138.562 20.9054 138.62 21.0981 138.62 21.2952C138.617 21.5548 138.514 21.8029 138.332 21.9869C138.151 22.1708 137.905 22.276 137.648 22.28L137.633 22.2917ZM62.3188 20.2947C60.6072 20.2947 59.7437 18.7377 59.7437 17.2584C59.7437 15.7792 60.665 14.2883 62.2378 14.2883C62.6156 14.2845 62.9898 14.3609 63.3365 14.5124C63.6831 14.664 63.9944 14.8873 64.2501 15.168L66.062 13.3423C65.5557 12.8481 64.9565 12.4615 64.2996 12.2054C63.6427 11.9493 62.9416 11.8289 62.2378 11.8514C59.0884 11.8514 56.7947 14.1364 56.7947 17.3012C56.7947 20.466 59.0382 22.7511 62.2918 22.7511C63.8338 22.7511 65.2563 22.2839 66.1005 21.3769L64.3388 19.4656C64.0753 19.7388 63.7598 19.9554 63.4114 20.1026C63.063 20.2497 62.6888 20.3244 62.3111 20.322L62.3188 20.2947ZM52.1726 22.4358H54.9867V12.1589H52.1726V22.4358ZM47.0571 17.7917C47.0571 19.0024 46.2861 20.3025 44.8251 20.3025C43.7033 20.3025 43.1058 19.4967 43.1058 17.8345V12.1589H40.2917V18.5313C40.2917 20.6568 41.3441 22.7238 44.1466 22.7238C45.4689 22.7238 46.5791 21.6728 47.1342 20.8942H47.1766V22.4513H49.8751V12.1589H47.0571V17.7917ZM35.207 13.4591H35.1415C34.7469 12.9758 34.2545 12.5833 33.6973 12.3081C33.1401 12.0328 32.5311 11.8811 31.911 11.8631C29.0429 11.8631 26.8379 14.1326 26.8379 17.2506C26.8379 20.3687 28.9003 22.7277 31.8262 22.7277C32.4471 22.7121 33.0582 22.5687 33.6223 22.3064C34.1864 22.044 34.6915 21.6681 35.1068 21.2018H35.1492V27.5002H37.9633V12.1317H35.2224V13.4358L35.207 13.4591ZM32.5085 20.2947C30.77 20.2947 29.7831 18.761 29.7831 17.2467C29.7831 15.7325 30.7044 14.2377 32.5085 14.2377C34.1816 14.2377 35.207 15.822 35.207 17.2857C35.207 18.7493 34.1931 20.2909 32.5085 20.2909V20.2947ZM96.5618 11.8553C93.3628 11.8553 91.0268 14.1248 91.0268 17.2506C91.0268 20.4816 93.4008 22.7511 96.5618 22.7511C99.7228 22.7511 102.098 20.4582 102.098 17.2506C102.098 14.1053 99.7928 11.8553 96.5618 11.8553ZM96.5618 20.2947C94.7158 20.2947 93.8908 18.7143 93.8908 17.2467C93.8908 15.7792 94.7268 14.2377 96.5618 14.2377C98.3968 14.2377 99.2338 15.7948 99.2338 17.2428C99.2338 18.6909 98.3968 20.2909 96.5618 20.2909V20.2947ZM131.727 16.1023C130.278 15.7519 129.773 15.5651 129.773 14.9734C129.773 14.1598 130.798 13.9768 131.261 13.9768C131.68 13.9895 132.092 14.0866 132.473 14.2624C132.855 14.4382 133.197 14.6892 133.481 15.0006L135.143 13.3929C134.372 12.4197 132.868 11.8358 131.288 11.8358C129.252 11.8358 127.136 12.8713 127.136 15.1797C127.136 17.165 128.678 17.7606 130.181 18.1265C131.77 18.5158 132.336 18.7727 132.336 19.415C132.336 20.3454 131.265 20.5244 130.898 20.5244C130.407 20.5046 129.926 20.3848 129.482 20.172C129.038 19.9593 128.641 19.6581 128.316 19.2865L126.608 21.0344C127.155 21.5841 127.808 22.0159 128.525 22.3037C129.243 22.5914 130.011 22.729 130.783 22.7082C133.551 22.7082 135.166 21.3847 135.166 19.2048C135.166 17.1144 133.169 16.4098 131.747 16.0906L131.727 16.1023ZM126.411 12.1589H122.788L119.156 16.4409H119.091V6.47949H116.277V22.4396H119.091V17.3791H119.145L122.915 22.4396H126.604L122.229 16.8302L126.38 12.1589H126.411ZM84.7006 11.867C84.1136 11.8781 83.5347 12.0074 82.9978 12.2473C82.461 12.4873 81.977 12.8331 81.5742 13.2645H81.5241V6.47949H78.71V22.4396H81.4085V20.9799H81.4393C81.7859 21.5174 82.2603 21.9586 82.8192 22.2632C83.3781 22.5679 84.0038 22.7262 84.6389 22.7238C87.5418 22.7238 89.7468 20.4232 89.7468 17.2506C89.7468 14.0781 87.5568 11.8553 84.689 11.8553L84.7006 11.867ZM84.1378 20.2947C82.4416 20.2947 81.4393 18.7688 81.4393 17.2896C81.4393 15.8103 82.4763 14.2415 84.1378 14.2415C85.9608 14.2415 86.8628 15.7986 86.8628 17.2467C86.8628 18.6948 85.8838 20.2947 84.1378 20.2947ZM77.6383 12.1589H74.007L70.3756 16.4409H70.3101V6.47949H67.496V22.4396H70.3101V17.3791H70.3756L74.1458 22.4396H77.8349L73.4789 16.8302L77.6306 12.1589H77.6383ZM108.91 11.8709C105.71 11.8709 103.374 14.1403 103.374 17.2662C103.374 20.4972 105.749 22.7666 108.91 22.7666C112.071 22.7666 114.446 20.4738 114.446 17.2662C114.446 14.0586 112.133 11.8553 108.914 11.8553L108.91 11.8709ZM108.91 20.3103C107.063 20.3103 106.238 18.7299 106.238 17.2623C106.238 15.7948 107.075 14.2571 108.91 14.2571C110.745 14.2571 111.581 15.8142 111.581 17.2623C111.581 18.7104 110.749 20.2947 108.914 20.2947L108.91 20.3103Z" fill="#202938"/>
<path d="M11.8501 0.5C9.50639 0.5 7.21529 1.2018 5.26649 2.5167C3.31779 3.8315 1.79889 5.7004 0.901993 7.887C0.0050934 10.0735 -0.229507 12.4795 0.227693 14.8008C0.684893 17.122 1.81359 19.2542 3.47079 20.9277C5.12809 22.6012 7.23959 23.7409 9.53829 24.2026C11.837 24.6643 14.2196 24.4273 16.3849 23.5216C18.5503 22.6159 20.401 21.0822 21.7031 19.1144C23.0052 17.1465 23.7002 14.833 23.7002 12.4663C23.7002 10.8948 23.3937 9.3388 22.7982 7.887C22.2026 6.4352 21.3298 5.116 20.2294 4.0048C19.129 2.8937 17.8226 2.0122 16.3849 1.4109C14.9472 0.8095 13.4063 0.5 11.8501 0.5ZM11.2063 20.3101C10.7524 20.3101 10.317 20.128 9.99599 19.8039C9.67509 19.4798 9.49469 19.0401 9.49469 18.5817V9.5506H7.91419C7.17319 9.5893 6.47519 9.9137 5.96429 10.457C5.45339 11.0003 5.16849 11.7209 5.16849 12.4702C5.16849 13.2194 5.45339 13.94 5.96429 14.4833C6.47519 15.0266 7.17319 15.3511 7.91419 15.3897H8.58109V17.1375H7.91419C6.68729 17.1401 5.50969 16.6504 4.64039 15.7762C3.77099 14.902 3.28119 13.7149 3.27859 12.476C3.27609 11.2371 3.76099 10.0479 4.62669 9.1701C5.49239 8.2922 6.66809 7.7976 7.89489 7.795H11.2063V20.3101ZM15.7976 17.1142H12.5054V4.6224C12.9594 4.6224 13.3947 4.8045 13.7157 5.1286C14.0367 5.4528 14.217 5.8924 14.217 6.3508V15.3547H15.8014C16.5424 15.316 17.2404 14.9916 17.7513 14.4483C18.2623 13.905 18.5471 13.1844 18.5471 12.4351C18.5471 11.6859 18.2623 10.9652 17.7513 10.422C17.2404 9.8787 16.5424 9.5542 15.8014 9.5156H15.1345V7.795H15.7898C16.0246 7.7755 16.2605 7.7755 16.4953 7.795C17.1013 7.8412 17.6923 8.0076 18.2346 8.2845C18.7769 8.5614 19.2599 8.9435 19.656 9.4089C20.0521 9.8743 20.3535 10.4139 20.5431 10.9969C20.7326 11.5799 20.8066 12.195 20.7608 12.8069C20.715 13.4188 20.5503 14.0156 20.276 14.5632C20.0018 15.1108 19.6235 15.5986 19.1626 15.9985C18.7017 16.3985 18.1673 16.7029 17.59 16.8943C17.0126 17.0857 16.4035 17.1604 15.7976 17.1142Z" fill="#202938"/>
<path d="M38.4606 3.22505C38.6131 3.22505 38.7621 3.17945 38.8889 3.09385C39.0157 3.00835 39.1145 2.88675 39.1729 2.74445C39.2312 2.60215 39.2465 2.44565 39.2167 2.29465C39.187 2.14365 39.1136 2.00485 39.0057 1.89605C38.8979 1.78715 38.7605 1.71295 38.611 1.68295C38.4614 1.65285 38.3064 1.66835 38.1655 1.72725C38.0246 1.78615 37.9042 1.88595 37.8195 2.01395C37.7348 2.14205 37.6896 2.29255 37.6896 2.44655C37.6896 2.65295 37.7708 2.85105 37.9154 2.99705C38.06 3.14305 38.2561 3.22505 38.4606 3.22505ZM33.7922 3.75835C33.4566 3.75255 33.1264 3.84405 32.8408 4.02205C32.5552 4.20015 32.3261 4.45715 32.1809 4.76265V3.91015H30.9396V9.14595H32.2348V6.26525C32.2348 5.56845 32.6203 4.86775 33.4414 4.86775C34.2625 4.86775 34.4129 5.64635 34.4129 6.26525V9.16535H35.7081V5.90715C35.7081 4.84055 35.1453 3.79345 33.7807 3.79345L33.7922 3.75835ZM28.3066 9.14595H29.6019V3.91015H28.3066V9.14595ZM51.868 3.22505C52.0205 3.22505 52.1696 3.17945 52.2964 3.09385C52.4232 3.00835 52.522 2.88675 52.5804 2.74445C52.6387 2.60215 52.654 2.44565 52.6242 2.29465C52.5945 2.14365 52.521 2.00485 52.4132 1.89605C52.3054 1.78715 52.168 1.71295 52.0185 1.68295C51.8689 1.65285 51.7139 1.66835 51.573 1.72725C51.4321 1.78615 51.3117 1.88595 51.227 2.01395C51.1423 2.14205 51.0971 2.29255 51.0971 2.44655C51.0971 2.65295 51.1783 2.85105 51.3229 2.99705C51.4675 3.14305 51.6636 3.22505 51.868 3.22505ZM49.7555 5.07415H51.1857V9.14205H52.481V5.06635H53.9536V3.89855H49.7555V5.07415ZM47.5505 9.14205H48.8458V3.91015H47.5505V9.14595V9.14205ZM36.3712 5.06635H37.8168V9.14205H39.1121V5.06635H40.5654V3.89855H36.3596L36.3712 5.06635ZM44.9523 6.79085C44.9523 7.48765 44.5668 8.18825 43.7457 8.18825C42.9246 8.18825 42.7742 7.40975 42.7742 6.79085V3.91015H41.479V7.17225C41.479 8.23895 42.0418 9.28605 43.4065 9.28605C43.7406 9.29195 44.0696 9.20175 44.3549 9.02605C44.6402 8.85025 44.8701 8.59615 45.0178 8.29345V9.13035H46.2475V3.91015H44.9754L44.9523 6.79085Z" fill="#202938"/>
</g>
<defs>
<clipPath id="clip0_2379_74">
<rect width="139" height="27" fill="white" transform="translate(0 0.5)"/>
</clipPath>
</defs>
</svg>
