<svg width="84" height="27" viewBox="0 0 84 27" fill="none" xmlns="http://www.w3.org/2000/svg">
<g clip-path="url(#clip0_2379_84)">
<path d="M12.6092 14.6148C11.7107 13.2271 11.0402 12.3109 10.576 11.9471C12.9133 11.357 15.2261 9.4141 15.2261 6.2424C15.2261 2.3566 12.5414 0.5 8.2903 0.5C4.5361 0.5 2.3671 2.2596 1.8622 5.3047H0L3.719 8.444L7.6497 5.3047H5.5377C5.5377 5.3047 5.5567 3.1246 8.3365 3.1246C10.709 3.1246 11.5207 4.8412 11.5207 6.2694C11.5207 8.3497 10.4104 9.9315 7.7556 9.9315H1.8568V20.0501H5.5757V12.4294C6.3901 12.4294 7.2045 12.7312 8.5618 14.7496L11.8736 20.0501H16.0296L12.6092 14.6148Z" fill="#202938"/>
<path d="M65.6465 20.05V1.61279H69.1015V20.05H65.6465Z" fill="#202938"/>
<path d="M22.9334 17.7163C24.0916 17.7264 25.2318 17.4307 26.237 16.8594L27.3527 19.0583C26.5221 19.5218 25.2218 20.2709 22.6212 20.2709C18.3837 20.2709 15.9922 17.6113 15.9922 13.6123C15.9922 9.61331 18.7502 7.08301 22.2602 7.08301C26.2126 7.08301 28.1372 9.87741 27.7192 14.5231H19.684C19.8415 16.4579 20.8296 17.7163 22.9334 17.7163ZM24.3911 12.141C24.364 10.7209 23.7912 9.58901 22.2194 9.58901C20.7644 9.58901 19.9311 10.4891 19.6976 12.141H24.3911Z" fill="#202938"/>
<path d="M35.8316 20.2709C31.776 20.2709 29.2812 17.5762 29.2812 13.6905C29.2812 9.45701 32.1126 7.08301 35.9347 7.08301C37.9897 7.08301 39.2111 7.70271 39.8083 8.09081L38.6899 10.3193C37.9019 9.81071 36.9774 9.55051 36.0378 9.57291C34.01 9.57291 32.9459 11.2652 32.9459 13.5854C32.9459 15.9055 33.9449 17.7056 36.103 17.7056C37.05 17.7095 37.9742 17.4172 38.7443 16.8702L39.8111 19.0718C39.2112 19.4598 38.1308 20.2709 35.8316 20.2709Z" fill="#202938"/>
<path d="M45.1435 7.48486V15.232C45.1435 16.4958 45.586 17.1426 46.832 17.1426C48.1594 17.1426 49.1719 15.8788 49.4325 15.5689V7.48486H52.8909V16.4393C52.8832 17.651 52.996 18.8604 53.2275 20.0502H49.8234C49.6806 19.501 49.5898 18.9399 49.552 18.3741C49.0745 18.9954 48.4581 19.4982 47.7515 19.8429C47.0449 20.1875 46.2674 20.3646 45.4801 20.36C42.6976 20.36 41.6797 18.5789 41.6797 16.283V7.48486H45.1435Z" fill="#202938"/>
<path d="M62.96 10.503C62.552 10.2917 62.092 10.1984 61.633 10.2336C60.099 10.2336 59.19 11.5809 58.878 12.1414V20.0638H55.4219V7.48504H58.878V9.18804C59.42 8.25834 60.463 7.17514 62.075 7.17514C62.667 7.13854 63.259 7.25264 63.794 7.50654L62.96 10.503Z" fill="#202938"/>
<path d="M80.1517 7.48486L77.7087 15.7494L74.7497 7.48486H70.9487L75.8137 19.072C74.9987 22.2356 74.1847 23.1787 72.3717 23.1787C71.8987 23.1899 71.4267 23.1309 70.9707 23.0036L70.5117 25.4288C71.1877 25.64 71.8917 25.7454 72.5997 25.7414C76.1607 25.7414 77.7247 23.432 78.8757 20.3762L82.7517 10.6753L84.0007 7.49826L80.1517 7.48486Z" fill="#202938"/>
</g>
<defs>
<clipPath id="clip0_2379_84">
<rect width="84" height="26" fill="white" transform="translate(0 0.5)"/>
</clipPath>
</defs>
</svg>
