<svg width="57" height="34" viewBox="0 0 57 34" fill="none" xmlns="http://www.w3.org/2000/svg">
<g clip-path="url(#clip0_2379_54)">
<mask id="mask0_2379_54" style="mask-type:luminance" maskUnits="userSpaceOnUse" x="0" y="0" width="57" height="33">
<path d="M57 0.5H0V32.5263H57V0.5Z" fill="white"/>
</mask>
<g mask="url(#mask0_2379_54)">
<path d="M34.931 32.485C32.2877 32.1311 30.1001 30.4613 29.3565 28.2297C28.7318 26.3549 29.1003 24.9059 30.2344 24.778C30.7471 24.7203 31.0801 24.8127 31.4001 25.1018C31.7279 25.398 31.8131 25.6182 31.885 26.3553C32.0958 28.5134 33.6878 29.9621 35.8488 29.9621C36.6283 29.9621 37.114 29.8568 37.7705 29.5452C39.0405 28.9426 39.7129 27.7947 39.6372 26.3589C39.5865 25.3975 39.1876 24.6649 38.3871 24.0632C37.7618 23.5931 36.8991 23.1986 35.273 22.6393C33.023 21.8654 32.0024 21.3695 31.0435 20.5841C29.2604 19.1238 28.585 16.4407 29.3715 13.9414C29.7072 12.8748 30.1525 12.1439 30.9719 11.3149C32.1943 10.0783 33.7855 9.44251 35.6527 9.44461C39.0216 9.44811 41.7546 11.5375 42.3711 14.58C42.4672 15.0542 42.4869 15.4128 42.4544 16.0952C42.3874 17.5018 42.0401 18.5079 41.4009 19.1471C40.6825 19.8655 39.5799 19.7383 39.15 18.8873C38.9357 18.4631 38.9413 18.2097 39.177 17.6584C39.5285 16.8362 39.6518 16.3595 39.6518 15.8225C39.6518 14.7909 39.3061 13.9276 38.5977 13.1898C38.0784 12.649 37.4988 12.3203 36.7081 12.1181C34.6752 11.5981 32.7066 12.63 32.0619 14.5534C31.8328 15.2368 31.8321 16.2738 32.0601 16.9149C32.2742 17.5166 32.6734 18.0773 33.1761 18.4826C33.7425 18.9393 34.9941 19.5428 36.3806 20.0279C38.62 20.8114 39.3792 21.1656 40.3313 21.8712C41.305 22.5928 41.8936 23.427 42.2649 24.612C42.4147 25.09 42.4388 25.3214 42.4392 26.282C42.4394 27.2201 42.4128 27.4892 42.2715 27.9769C41.61 30.2591 39.8435 31.8612 37.4197 32.3772C36.7601 32.5176 35.5628 32.5696 34.931 32.485ZM5.4976 22.5252C2.8205 22.1029 0.785602 20.4067 0.162402 18.078C-0.0354979 17.3387 -0.0516988 16.0225 0.128001 15.287C0.390301 14.213 1.0237 13.2851 1.6313 13.0846C2.1454 12.9149 2.8225 13.1461 3.1609 13.6069C3.4245 13.9658 3.4154 14.3923 3.1282 15.1315C2.8078 15.9563 2.7451 16.3939 2.8518 17.0617C3.0688 18.4195 4.0321 19.4655 5.449 19.8817C6.0176 20.0488 7.1032 20.0383 7.6751 19.8603C9.6799 19.2364 10.5743 17.0743 9.5956 15.2179C9.1146 14.3055 8.02299 13.6068 5.79429 12.7848C3.41219 11.9063 2.5262 11.4188 1.5473 10.4475C0.781801 9.68791 0.4199 9.08061 0.1654 8.12801C-0.0551995 7.30251 -0.0551003 5.84981 0.165499 5.02041C0.618799 3.31601 1.747 1.93901 3.3317 1.15601C4.2899 0.682612 5.116 0.498312 6.2719 0.500012C8.2712 0.502612 9.7667 1.09901 11.0676 2.41181C12.0948 3.44841 12.576 4.43431 12.7342 5.82671C12.8882 7.18201 12.3833 7.86441 11.2783 7.79401C10.5651 7.74861 10.1119 7.32681 10.0297 6.63191C9.8837 5.39701 9.61469 4.74791 8.99029 4.12351C7.77299 2.90621 5.6764 2.69051 4.219 3.63241C2.729 4.59541 2.33839 6.79881 3.40909 8.20111C3.96679 8.93161 4.9111 9.46981 7.1439 10.33C8.8744 10.9967 9.4894 11.2839 10.253 11.7816C11.3738 12.5122 12.1074 13.3989 12.4805 14.4741C13.3103 16.8654 12.5516 19.6309 10.6376 21.1917C10.051 21.6701 9.0092 22.1882 8.2419 22.3832C7.5547 22.5579 6.1615 22.6299 5.4976 22.5252ZM19.8197 22.5173C17.7507 22.2206 15.75 20.7185 14.8609 18.7942C14.4177 17.835 14.2718 17.132 14.2781 15.986C14.2847 14.7911 14.4305 14.1429 14.9217 13.1238C15.5688 11.7814 16.6014 10.7638 17.981 10.1091C18.97 9.63981 19.5005 9.51221 20.6573 9.46571C22.1566 9.40531 23.299 9.67181 24.4389 10.3476C25.003 10.682 25.9124 11.5078 26.3037 12.0409C26.7068 12.5901 27.1598 13.5678 27.3695 14.3413C27.5618 15.0508 27.5636 15.0824 27.5909 18.2479C27.6154 21.0991 27.605 21.4741 27.4935 21.7661C27.0984 22.8006 25.4456 22.866 24.9361 21.8672C24.806 21.6123 24.7925 21.3528 24.7634 18.5467C24.7371 16.0064 24.7112 15.4238 24.6069 15.026C24.2913 13.8222 23.5525 12.8478 22.5999 12.379C20.3084 11.2513 17.6528 12.6338 17.1597 15.2111C17.025 15.9153 17.0257 16.1851 17.1641 16.8409C17.3136 17.5497 17.6525 18.2083 18.1372 18.7318C19.1164 19.7895 20.1811 20.1178 21.7764 19.8543C22.5452 19.7273 22.8502 19.7866 23.2145 20.134C23.9843 20.8681 23.6921 21.8864 22.5936 22.2974C21.8173 22.5879 20.8479 22.6647 19.8197 22.5173ZM49.7483 22.5226C47.3983 22.1779 45.4263 20.7151 44.4713 18.6096C43.7448 17.0074 43.7605 14.9032 44.5113 13.2785C45.3313 11.5042 46.8563 10.2023 48.7583 9.65391C49.5663 9.42111 51.4303 9.40471 52.2893 9.62291C55.1313 10.3444 56.9733 12.4998 56.9993 15.1313C57.0053 15.7375 56.9853 15.8377 56.7883 16.1979C56.6563 16.4372 56.4453 16.6811 56.2573 16.8106C55.6873 17.2031 55.3193 17.25 52.8103 17.25C50.5993 17.25 50.5283 17.2456 50.2093 17.0828C49.7723 16.859 49.5963 16.5993 49.5573 16.1193C49.5313 15.7962 49.5573 15.6808 49.6993 15.4726C50.0843 14.912 50.0833 14.9124 52.1523 14.871C53.9023 14.8361 54.0183 14.8251 54.1213 14.6852C54.3473 14.3787 54.0413 13.5816 53.4843 13.0246C52.8063 12.3464 51.8163 11.9702 50.7183 11.9735C49.5623 11.977 48.7613 12.3026 47.9783 13.0863C46.3703 14.6961 46.3373 17.2222 47.9033 18.8191C48.7033 19.6345 49.6023 20.0006 50.8043 20.0006C51.9963 20.0006 52.4743 19.8385 54.3343 18.8032C55.9633 17.8964 57.2193 19.5753 55.8613 20.8451C54.4863 22.1315 51.9073 22.8393 49.7483 22.5226Z" fill="#202938"/>
</g>
</g>
<defs>
<clipPath id="clip0_2379_54">
<rect width="57" height="33" fill="white" transform="translate(0 0.5)"/>
</clipPath>
</defs>
</svg>
