<svg width="63" height="27" viewBox="0 0 63 27" fill="none" xmlns="http://www.w3.org/2000/svg">
<g clip-path="url(#clip0_2379_40)">
<path fill-rule="evenodd" clip-rule="evenodd" d="M62.821 13.9341C62.821 9.49096 60.674 5.98486 56.571 5.98486C52.451 5.98486 49.959 9.49096 49.959 13.8994C49.959 19.1237 52.901 21.7619 57.125 21.7619C59.185 21.7619 60.743 21.2933 61.921 20.6337V17.1624C60.743 17.7525 59.393 18.117 57.679 18.117C56 18.117 54.511 17.5269 54.321 15.4788H62.786C62.786 15.2532 62.821 14.3507 62.821 13.9341ZM54.269 12.2852C54.269 10.3241 55.464 9.50826 56.554 9.50826C57.61 9.50826 58.735 10.3241 58.735 12.2852H54.269Z" fill="#202938"/>
<path fill-rule="evenodd" clip-rule="evenodd" d="M43.2761 5.98486C41.5796 5.98486 40.489 6.78326 39.8831 7.33876L39.6581 6.26256H35.8496V26.5002L40.1774 25.5803L40.1947 20.6684C40.8179 21.1197 41.7354 21.7619 43.2588 21.7619C46.3576 21.7619 49.1798 19.2625 49.1798 13.7605C49.1618 8.72726 46.3056 5.98486 43.2761 5.98486ZM42.2375 17.9435C41.2161 17.9435 40.6102 17.579 40.1947 17.1277L40.1774 10.6885C40.6275 10.1852 41.2507 9.83806 42.2375 9.83806C43.8128 9.83806 44.9034 11.6083 44.9034 13.882C44.9034 16.2078 43.8301 17.9435 42.2375 17.9435Z" fill="#202938"/>
<path fill-rule="evenodd" clip-rule="evenodd" d="M29.8945 4.9606L34.2396 4.0234V0.5L29.8945 1.4199V4.9606Z" fill="#202938"/>
<path d="M34.2396 6.27979H29.8945V21.4667H34.2396V6.27979Z" fill="#202938"/>
<path fill-rule="evenodd" clip-rule="evenodd" d="M25.2389 7.56391L24.9619 6.27951H21.2227V21.4665H25.5505V11.1741C26.5719 9.83761 28.303 10.0806 28.8397 10.2715V6.27951C28.2857 6.07121 26.2603 5.68941 25.2389 7.56391Z" fill="#202938"/>
<path fill-rule="evenodd" clip-rule="evenodd" d="M16.583 2.51367L12.3591 3.41617L12.3418 17.3186C12.3418 19.8874 14.2633 21.7792 16.8254 21.7792C18.2449 21.7792 19.2836 21.5189 19.8549 21.2065V17.6831C19.3009 17.9087 16.5657 18.7071 16.5657 16.1384V9.97687H19.8549V6.27997H16.5657L16.583 2.51367Z" fill="#202938"/>
<path fill-rule="evenodd" clip-rule="evenodd" d="M4.8798 10.6885C4.8798 10.0116 5.4337 9.75126 6.3512 9.75126C7.6669 9.75126 9.3288 10.1505 10.6444 10.862V6.78326C9.2076 6.21056 7.7881 5.98486 6.3512 5.98486C2.837 5.98486 0.5 7.82466 0.5 10.8967C0.5 15.6871 7.0783 14.9234 7.0783 16.9889C7.0783 17.7872 6.3859 18.0476 5.4164 18.0476C3.9796 18.0476 2.1446 17.4575 0.690399 16.6591V20.7899C2.3004 21.4842 3.9276 21.7792 5.4164 21.7792C9.0172 21.7792 11.4927 19.9915 11.4927 16.8847C11.4754 11.7125 4.8798 12.6324 4.8798 10.6885Z" fill="#202938"/>
</g>
<defs>
<clipPath id="clip0_2379_40">
<rect width="63" height="26" fill="white" transform="translate(0 0.5)"/>
</clipPath>
</defs>
</svg>
