<svg width="74" height="23" viewBox="0 0 74 23" fill="none" xmlns="http://www.w3.org/2000/svg">
<path d="M12.5148 11.4898L20.5202 3.48727C20.7856 3.21747 20.9337 2.86037 20.9337 2.48167C20.9337 1.69227 20.2903 1.05127 19.4987 1.05127C19.1131 1.05127 18.7517 1.20197 18.4791 1.47717L10.4808 9.44897L2.4469 1.46527C2.1754 1.19837 1.8157 1.05127 1.4342 1.05127C0.6436 1.05127 0 1.69197 0 2.48057C0 2.86517 0.154001 3.22607 0.430401 3.49807L8.4347 11.4787L0.434601 19.4711C0.153401 19.7473 0 20.109 0 20.4954C0 21.2845 0.6436 21.9248 1.4342 21.9248C1.8163 21.9248 2.1763 21.7769 2.4469 21.507L10.4684 13.519L18.4594 21.4779C18.7429 21.7701 19.1085 21.9257 19.4987 21.9257C20.2895 21.9257 20.933 21.2845 20.933 20.4954C20.933 20.1145 20.785 19.7568 20.5158 19.4871L12.5148 11.4898Z" fill="#202938"/>
<path d="M60.1055 11.4874C60.1055 12.9206 61.2735 14.0865 62.7125 14.0865C64.1485 14.0865 65.3175 12.9206 65.3175 11.4874C65.3175 10.0539 64.1485 8.88818 62.7125 8.88818C61.2735 8.88818 60.1055 10.0539 60.1055 11.4874Z" fill="#202938"/>
<path d="M55.1624 11.4886C55.1624 7.3382 58.5484 3.9613 62.7114 3.9613C66.8714 3.9613 70.2584 7.3382 70.2584 11.4886C70.2584 15.638 66.8714 19.0135 62.7114 19.0135C58.5484 19.0135 55.1624 15.638 55.1624 11.4886ZM52.1934 11.4886C52.1934 17.2708 56.9114 21.9751 62.7114 21.9751C68.5104 21.9751 73.2314 17.2708 73.2314 11.4886C73.2314 5.7056 68.5104 1 62.7114 1C56.9114 1 52.1934 5.7056 52.1934 11.4886Z" fill="#202938"/>
<path d="M51.4457 1.17942L51.0045 1.17822C49.6797 1.17822 48.402 1.59482 47.3348 2.41482C47.1942 1.77322 46.6191 1.29032 45.9339 1.29032C45.1454 1.29032 44.5136 1.92042 44.5117 2.70832C44.5117 2.71122 44.5165 20.3728 44.5165 20.3728C44.5185 21.1593 45.1618 21.7986 45.9509 21.7986C46.7397 21.7986 47.3829 21.1593 47.3849 20.3711C47.3849 20.3676 47.3856 9.50962 47.3856 9.50962C47.3856 5.88952 47.7175 4.42752 50.8273 4.04002C51.1147 4.00432 51.4287 4.00992 51.4287 4.00992C52.2794 3.98082 52.8844 3.39772 52.8844 2.60962C52.8844 1.82112 52.2384 1.17942 51.4457 1.17942Z" fill="#202938"/>
<path d="M23.9055 9.76186C23.9055 9.72276 23.9086 9.68196 23.9105 9.64176C24.7432 6.35916 27.7246 3.93006 31.2752 3.93006C34.8687 3.93006 37.8773 6.41886 38.6674 9.76186H23.9055ZM41.6047 9.49186C40.9866 6.57366 39.3845 4.17666 36.9448 2.63736C33.3786 0.379659 28.6693 0.50456 25.2247 2.94716C22.415 4.94046 20.793 8.20106 20.793 11.5599C20.793 12.4021 20.8949 13.2522 21.1068 14.0889C22.1678 18.2508 25.7557 21.4013 30.0334 21.9234C31.3028 22.0767 32.5383 22.0033 33.8178 21.6729C34.9172 21.4062 35.981 20.9616 36.9612 20.3352C37.9786 19.683 38.8286 18.823 39.6518 17.7936C39.6684 17.7746 39.6851 17.7579 39.7017 17.738C40.2731 17.0314 40.1671 16.0266 39.5393 15.547C39.0098 15.1423 38.1208 14.9782 37.4213 15.8715C37.271 16.085 37.1033 16.3048 36.9186 16.5246C36.3624 17.1374 35.6724 17.7312 34.8455 18.1917C33.7934 18.7522 32.5943 19.0726 31.3197 19.0797C27.1476 19.0334 24.9151 16.1294 24.121 14.0566C23.9823 13.6696 23.8754 13.2681 23.8008 12.8547C23.7911 12.7773 23.7839 12.7027 23.7811 12.6339C24.6437 12.6339 38.7527 12.6315 38.7527 12.6315C40.8052 12.5886 41.9098 11.1439 41.6047 9.49186Z" fill="#202938"/>
</svg>
